<?xml version="1.0" encoding="UTF-8"?>
<!DOCTYPE svg PUBLIC "-//W3C//DTD SVG 1.1//EN" "http://www.w3.org/Graphics/SVG/1.1/DTD/svg11.dtd">
<!-- Creator: CorelDRAW 2021 (64-Bit) -->
<svg xmlns="http://www.w3.org/2000/svg" xml:space="preserve" width="168mm" height="167.377mm" version="1.1" style="shape-rendering:geometricPrecision; text-rendering:geometricPrecision; image-rendering:optimizeQuality; fill-rule:evenodd; clip-rule:evenodd"
viewBox="0 0 8882.45 8849.49"
 xmlns:xlink="http://www.w3.org/1999/xlink"
 xmlns:xodm="http://www.corel.com/coreldraw/odm/2003">
 <defs>
  <style type="text/css">
   <![CDATA[
    .fil0 {fill:white;fill-rule:nonzero}
   ]]>
  </style>
 </defs>
 <g id="Layer_x0020_1">
  <metadata id="CorelCorpID_0Corel-Layer"/>
  <path class="fil0" d="M8882.45 4441.23c0,-2453.09 -1988.14,-4441.23 -4441.23,-4441.23 -2453.09,0 -4441.23,1988.14 -4441.23,4441.23 0,2081.83 1434.72,3830.56 3369.09,4311.12l0 -2954.46 -916 0 0 -1356.66 916 0 0 -584.65c0,-1511.06 683.53,-2211.94 2168.57,-2211.94 281.05,0 766.8,55.52 966.32,111.03l0 1228.28c-104.09,-10.41 -286.25,-17.35 -513.52,-17.35 -728.64,0 -1009.69,275.84 -1009.69,992.33l0 482.29 1450.34 0 -249.82 1356.66 -1202.25 0 0 3051.61c2199.79,-265.44 3903.42,-2137.34 3903.42,-4408.27z"/>
 </g>
</svg>
