<?xml version="1.0" encoding="UTF-8"?>
<!DOCTYPE svg PUBLIC "-//W3C//DTD SVG 1.1//EN" "http://www.w3.org/Graphics/SVG/1.1/DTD/svg11.dtd">
<!-- Creator: CorelDRAW 2021 (64-Bit) -->
<svg xmlns="http://www.w3.org/2000/svg" xml:space="preserve" width="147.082mm" height="147.049mm" version="1.1" style="shape-rendering:geometricPrecision; text-rendering:geometricPrecision; image-rendering:optimizeQuality; fill-rule:evenodd; clip-rule:evenodd"
viewBox="0 0 2616.39 2615.81"
 xmlns:xlink="http://www.w3.org/1999/xlink"
 xmlns:xodm="http://www.corel.com/coreldraw/odm/2003">
 <defs>
  <style type="text/css">
   <![CDATA[
    .fil0 {fill:white;fill-rule:nonzero}
   ]]>
  </style>
 </defs>
 <g id="Layer_x0020_1">
  <metadata id="CorelCorpID_0Corel-Layer"/>
  <path class="fil0" d="M1308.49 637.24c-370.64,-1.17 -671.83,298.85 -672.99,669.49 -1.17,370.64 298.85,671.83 669.49,672.99 370.64,1.17 671.83,-298.85 672.99,-669.49 1.17,-370.64 -298.85,-671.83 -669.49,-672.99zm-3.5 235.81c240.48,-1.17 436.02,193.2 437.18,433.68 1.17,240.48 -193.2,436.02 -433.68,437.18 -240.48,1.17 -436.02,-193.2 -437.18,-433.68 -1.17,-240.48 193.2,-436.02 433.68,-437.18zm545.16 -263.25c0,-86.39 70.04,-156.43 156.43,-156.43 86.39,0 156.43,70.04 156.43,156.43 0,86.39 -70.04,156.43 -156.43,156.43 -86.39,0 -156.43,-70.04 -156.43,-156.43zm757.05 158.76c-9.92,-209.54 -57.78,-395.16 -211.3,-548.08 -152.93,-152.93 -338.54,-200.79 -548.08,-211.3 -215.96,-12.26 -863.28,-12.26 -1079.24,0 -208.96,9.92 -394.58,57.78 -548.09,210.71 -153.51,152.93 -200.79,338.54 -211.3,548.08 -12.26,215.96 -12.26,863.28 0,1079.24 9.92,209.54 57.78,395.16 211.3,548.09 153.51,152.93 338.54,200.79 548.09,211.3 215.96,12.26 863.28,12.26 1079.24,0 209.54,-9.92 395.16,-57.78 548.08,-211.3 152.93,-152.93 200.79,-338.54 211.3,-548.09 12.26,-215.96 12.26,-862.69 0,-1078.66zm-279 1310.38c-45.53,114.4 -133.67,202.54 -248.65,248.65 -172.19,68.29 -580.77,52.53 -771.06,52.53 -190.28,0 -599.45,15.18 -771.05,-52.53 -114.4,-45.53 -202.54,-133.66 -248.65,-248.65 -68.29,-172.19 -52.53,-580.77 -52.53,-771.05 0,-190.28 -15.18,-599.45 52.53,-771.05 45.53,-114.4 133.67,-202.54 248.65,-248.65 172.19,-68.29 580.77,-52.53 771.05,-52.53 190.28,0 599.45,-15.18 771.06,52.53 114.4,45.53 202.54,133.67 248.65,248.65 68.29,172.19 52.53,580.77 52.53,771.05 0,190.28 15.76,599.45 -52.53,771.05z"/>
 </g>
</svg>
