<?xml version="1.0" encoding="UTF-8"?>
<!DOCTYPE svg PUBLIC "-//W3C//DTD SVG 1.1//EN" "http://www.w3.org/Graphics/SVG/1.1/DTD/svg11.dtd">
<!-- Creator: CorelDRAW 2021 (64-Bit) -->
<svg xmlns="http://www.w3.org/2000/svg" xml:space="preserve" width="147mm" height="147mm" version="1.1" style="shape-rendering:geometricPrecision; text-rendering:geometricPrecision; image-rendering:optimizeQuality; fill-rule:evenodd; clip-rule:evenodd"
viewBox="0 0 7337.48 7337.48"
 xmlns:xlink="http://www.w3.org/1999/xlink"
 xmlns:xodm="http://www.corel.com/coreldraw/odm/2003">
 <defs>
  <style type="text/css">
   <![CDATA[
    .fil0 {fill:white;fill-rule:nonzero}
   ]]>
  </style>
 </defs>
 <g id="Layer_x0020_1">
  <metadata id="CorelCorpID_0Corel-Layer"/>
  <path class="fil0" d="M6813.38 0l-6290.91 0c-288.26,0 -522.47,237.48 -522.47,529.02l0 6279.45c0,291.53 234.21,529.02 522.47,529.02l6290.91 0c288.26,0 524.11,-237.48 524.11,-529.02l0 -6279.45c0,-291.53 -235.85,-529.02 -524.11,-529.02zm-4595.75 6289.27l-1087.52 0 0 -3501.68 1089.16 0 0 3501.68 -1.64 0zm-543.76 -5241.06c348.85,0 630.56,281.7 630.56,630.56 0,348.86 -281.71,630.56 -630.56,630.56 -348.86,0 -630.56,-281.7 -630.56,-630.56 0,-348.86 281.7,-630.56 630.56,-630.56zm4620.32 5241.06l-1087.52 0 0 -1703.34c0,-406.18 -8.19,-928.65 -565.05,-928.65 -566.69,0 -653.5,442.22 -653.5,899.17l0 1732.82 -1087.52 0 0 -3501.68 1043.3 0 0 478.24 14.74 0c145.77,-275.16 501.17,-565.05 1030.2,-565.05 1100.62,0 1305.35,725.56 1305.35,1668.95l0 1919.54z"/>
 </g>
</svg>
