<?xml version="1.0" encoding="UTF-8"?>
<!DOCTYPE svg PUBLIC "-//W3C//DTD SVG 1.1//EN" "http://www.w3.org/Graphics/SVG/1.1/DTD/svg11.dtd">
<!-- Creator: CorelDRAW 2021 (64-Bit) -->
<svg xmlns="http://www.w3.org/2000/svg" xml:space="preserve" width="168mm" height="126mm" version="1.1" style="shape-rendering:geometricPrecision; text-rendering:geometricPrecision; image-rendering:optimizeQuality; fill-rule:evenodd; clip-rule:evenodd"
viewBox="0 0 5437.29 4077.97"
 xmlns:xlink="http://www.w3.org/1999/xlink"
 xmlns:xodm="http://www.corel.com/coreldraw/odm/2003">
 <defs>
  <style type="text/css">
   <![CDATA[
    .fil0 {fill:white;fill-rule:nonzero}
   ]]>
  </style>
 </defs>
 <g id="Layer_x0020_1">
  <metadata id="CorelCorpID_0Corel-Layer"/>
  <path class="fil0" d="M509.75 0c-281.42,0 -509.75,228.32 -509.75,509.75 0,160.36 75.4,311.16 203.9,407.8l2208.9 1656.67c181.6,135.93 430.1,135.93 611.69,0l2208.9 -1656.67c128.5,-96.64 203.9,-247.44 203.9,-407.8 0,-281.42 -228.32,-509.75 -509.75,-509.75l-4417.8 0zm-509.75 1401.8l0 1996.5c0,374.88 304.79,679.66 679.66,679.66l4077.97 0c374.88,0 679.66,-304.79 679.66,-679.66l0 -1996.5 -2106.95 1580.21c-362.13,271.86 -861.26,271.86 -1223.39,0l-2106.95 -1580.21z"/>
 </g>
</svg>
