<?xml version="1.0" encoding="UTF-8"?>
<!DOCTYPE svg PUBLIC "-//W3C//DTD SVG 1.1//EN" "http://www.w3.org/Graphics/SVG/1.1/DTD/svg11.dtd">
<!-- Creator: CorelDRAW 2021 (64-Bit) -->
<svg xmlns="http://www.w3.org/2000/svg" xml:space="preserve" width="147.034mm" height="167.974mm" version="1.1" style="shape-rendering:geometricPrecision; text-rendering:geometricPrecision; image-rendering:optimizeQuality; fill-rule:evenodd; clip-rule:evenodd"
viewBox="0 0 4076.52 4657.07"
 xmlns:xlink="http://www.w3.org/1999/xlink"
 xmlns:xodm="http://www.corel.com/coreldraw/odm/2003">
 <defs>
  <style type="text/css">
   <![CDATA[
    .fil0 {fill:white;fill-rule:nonzero}
   ]]>
  </style>
 </defs>
 <g id="Layer_x0020_1">
  <metadata id="CorelCorpID_0Corel-Layer"/>
  <path class="fil0" d="M4075.61 1909.51c-400.28,0.91 -791.46,-123.72 -1117.15,-356.61l0 1625.68c0,301.12 -91.88,594.96 -263.82,842.41 -171.94,247.45 -414.83,436.67 -696.85,542.2 -282.02,105.53 -589.5,122.81 -881.52,48.22 -292.02,-74.6 -554.02,-235.62 -752.34,-462.14 -198.32,-226.52 -321.14,-509.45 -354.79,-808.75 -33.66,-299.3 26.38,-601.33 169.21,-866.06 142.83,-264.73 363.89,-479.42 633.17,-615.88 269.28,-136.46 572.22,-186.49 870.61,-145.56l0 817.84c-136.46,-42.76 -282.93,-41.85 -418.48,3.64 -135.55,45.49 -253.81,132.82 -336.6,248.35 -82.78,115.54 -127.36,255.64 -126.45,399.37 0.91,143.74 47.3,282.02 131.91,397.55 84.6,115.54 203.78,201.05 340.24,244.72 136.46,43.67 282.93,43.67 418.48,-0.91 135.55,-44.58 254.72,-131 338.42,-246.53 83.7,-115.54 129.18,-255.64 129.18,-398.46l0 -3178.58 800.56 0c-0.91,67.32 5.46,135.55 17.29,201.96 28.2,148.28 85.51,290.2 170.12,415.74 84.61,125.54 193.77,232.89 320.22,314.76 181.04,119.17 393,182.85 609.52,182.85l0 795.1 -0.91 -0.91z"/>
 </g>
</svg>
